<?xml version="1.0" standalone="no"?>
<!DOCTYPE svg PUBLIC "-//W3C//DTD SVG 20010904//EN"
 "http://www.w3.org/TR/2001/REC-SVG-20010904/DTD/svg10.dtd">
<svg version="1.0" xmlns="http://www.w3.org/2000/svg"
 width="346.594940pt" height="121.443811pt" viewBox="0 0 346.594940 121.443811"
 preserveAspectRatio="xMidYMid meet">
<metadata>
Created by potrace 1.12, written by Peter Selinger 2001-2015
</metadata>
<g transform="translate(-31.112954,376.570849) scale(0.100000,-0.100000)"
fill="#000000" stroke="none">
<path d="M835 3764 c-199 -31 -369 -154 -458 -332 -176 -351 15 -764 399 -862
196 -50 400 3 550 142 136 127 196 265 197 448 0 87 -5 119 -26 185 -80 244
-293 406 -550 419 -45 2 -95 2 -112 0z m65 -604 l0 -560 -38 0 c-21 0 -63 7
-93 16 -195 58 -338 202 -394 399 -39 134 -14 312 61 436 42 70 148 170 217
206 64 33 160 61 210 62 l37 1 0 -560z m189 535 c393 -124 521 -613 240 -919
-90 -97 -243 -175 -346 -176 l-43 0 0 560 0 560 34 0 c19 0 71 -11 115 -25z"/>
<path d="M677 3343 c-19 -33 -117 -298 -115 -311 4 -23 27 -26 34 -5 4 10 31
75 61 146 30 70 53 137 51 149 -3 22 -23 35 -31 21z"/>
<path d="M467 3244 c-31 -31 -57 -61 -57 -68 0 -22 107 -119 124 -113 24 9 20
19 -24 62 -22 21 -40 44 -40 49 0 6 19 30 42 53 38 38 41 45 27 58 -13 14 -21
9 -72 -41z"/>
<path d="M723 3284 c-4 -10 9 -31 38 -60 l43 -44 -42 -43 c-43 -44 -50 -61
-31 -73 12 -7 129 103 129 121 0 10 -113 115 -125 115 -3 0 -8 -7 -12 -16z"/>
<path d="M1232 3393 c2 -12 15 -20 41 -23 l38 -5 -80 -79 c-79 -79 -85 -81
-123 -54 -15 11 -25 5 -73 -42 -30 -30 -55 -60 -55 -67 0 -29 25 -22 69 21 47
46 47 47 66 26 10 -11 22 -20 27 -20 5 0 51 41 103 91 94 91 95 92 95 60 0
-24 4 -31 20 -31 18 0 20 7 20 70 l0 70 -76 0 c-66 0 -75 -2 -72 -17z"/>
<path d="M1314 3157 c-2 -7 -3 -69 -2 -138 3 -116 4 -124 23 -124 19 0 20 8
23 138 2 133 2 137 -18 137 -11 0 -23 -6 -26 -13z"/>
<path d="M1212 2998 c2 -93 6 -113 18 -113 12 0 16 20 18 113 3 107 2 112 -18
112 -20 0 -21 -5 -18 -112z"/>
<path d="M1100 2972 c0 -65 3 -81 17 -86 25 -10 33 13 31 89 -3 64 -5 70 -25
73 -22 3 -23 1 -23 -76z"/>
<path d="M1000 2940 c0 -43 3 -50 20 -50 17 0 20 7 20 50 0 43 -3 50 -20 50
-17 0 -20 -7 -20 -50z"/>
<path d="M1906 3653 c-39 -10 -93 -54 -116 -96 -35 -61 -34 -157 2 -218 36
-61 92 -91 172 -92 37 0 73 6 91 15 59 32 105 102 105 163 l0 35 -101 0 -100
0 3 -27 c3 -27 6 -28 66 -31 68 -3 75 -12 42 -54 -27 -35 -72 -51 -126 -45
-54 6 -80 27 -106 85 -35 79 -5 167 69 203 59 29 112 19 152 -27 22 -25 39
-34 61 -34 36 0 37 5 5 52 -42 61 -136 92 -219 71z"/>
<path d="M3445 3641 c-43 -19 -90 -68 -107 -110 -17 -43 -12 -136 8 -177 54
-107 206 -142 313 -71 100 66 110 239 19 324 -57 53 -159 68 -233 34z m169
-59 c60 -35 84 -135 50 -208 -48 -101 -210 -101 -258 0 -20 43 -21 118 -1 156
38 73 131 96 209 52z"/>
<path d="M2230 3450 l0 -200 30 0 30 0 0 75 0 75 38 0 c36 0 39 -3 82 -75 43
-72 46 -75 82 -75 l37 0 -49 78 c-54 82 -57 92 -37 92 7 0 26 14 43 31 24 25
29 39 29 80 0 46 -4 54 -37 85 l-38 34 -105 0 -105 0 0 -200z m198 134 c16
-11 22 -25 22 -51 0 -57 -22 -73 -97 -73 l-63 0 0 70 0 70 58 0 c36 0 66 -6
80 -16z"/>
<path d="M2592 3496 c3 -167 8 -183 70 -229 35 -26 135 -26 180 0 58 33 68 69
68 236 l0 147 -30 0 -30 0 0 -146 0 -146 -29 -29 c-22 -21 -39 -29 -66 -29
-86 0 -105 39 -105 220 l0 130 -31 0 -30 0 3 -154z"/>
<path d="M2990 3450 l0 -200 30 0 29 0 3 73 3 72 40 3 c77 5 106 13 139 43 59
51 55 137 -9 187 -24 19 -40 22 -131 22 l-104 0 0 -200z m197 128 c30 -28 31
-78 2 -104 -15 -13 -36 -19 -77 -19 l-57 0 -3 73 -3 72 57 0 c45 0 63 -5 81
-22z"/>
<path d="M1960 2911 c0 -165 -2 -180 -21 -205 -37 -47 -111 -27 -124 34 -6 27
-10 30 -47 30 -39 0 -40 0 -33 -32 19 -85 68 -128 147 -128 63 0 111 25 137
70 19 35 21 53 21 224 l0 186 -40 0 -40 0 0 -179z"/>
<path d="M2150 2855 l0 -235 140 0 140 0 0 30 0 30 -100 0 -100 0 0 70 0 70
90 0 90 0 0 35 0 35 -90 0 -90 0 0 65 0 65 100 0 100 0 0 35 0 35 -140 0 -140
0 0 -235z"/>
<path d="M2520 2856 l0 -236 43 0 42 0 -3 167 c-3 126 -1 165 8 157 6 -6 62
-80 123 -165 112 -153 113 -154 155 -157 l42 -3 0 235 0 236 -43 0 -43 0 4
-170 c3 -94 1 -170 -4 -170 -5 0 -31 33 -57 73 -26 39 -78 115 -115 167 -66
92 -69 95 -110 98 l-42 3 0 -235z"/>
<path d="M3000 3055 l0 -34 68 -3 67 -3 3 -197 2 -198 40 0 40 0 0 200 0 200
65 0 65 0 0 35 0 35 -175 0 -175 0 0 -35z"/>
<path d="M3511 3071 c-6 -11 -24 -55 -40 -98 -17 -43 -52 -136 -80 -208 -28
-71 -51 -133 -51 -137 0 -4 18 -8 39 -8 38 0 40 2 62 55 l23 55 97 0 98 0 17
-55 18 -55 44 0 c37 0 42 3 38 18 -4 9 -44 114 -90 232 l-83 215 -41 3 c-32 2
-43 -1 -51 -17z m88 -179 c17 -46 31 -88 31 -93 0 -5 -31 -9 -70 -9 -45 0 -70
4 -70 11 0 25 65 188 71 181 4 -4 22 -44 38 -90z"/>
</g>
</svg>
