<?xml version="1.0" standalone="no"?>
<!DOCTYPE svg PUBLIC "-//W3C//DTD SVG 20010904//EN"
 "http://www.w3.org/TR/2001/REC-SVG-20010904/DTD/svg10.dtd">
<svg version="1.0" xmlns="http://www.w3.org/2000/svg"
 width="494.000000pt" height="290.000000pt" viewBox="0 0 494.000000 290.000000"
 preserveAspectRatio="xMidYMid meet">

<g transform="translate(0.000000,290.000000) scale(0.100000,-0.100000)"
fill="#000000" stroke="none">
<path d="M4250 2460 c-8 -15 -8 -41 0 -98 7 -43 10 -93 8 -112 -3 -34 -4 -35
-54 -40 -57 -6 -77 -19 -102 -64 -14 -26 -16 -68 -17 -261 0 -218 1 -232 22
-271 12 -22 28 -45 35 -52 8 -6 55 -10 120 -10 101 1 109 2 140 28 28 24 31
30 19 44 -7 9 -26 16 -41 16 l-27 0 -11 148 c-7 82 -9 224 -6 322 3 96 2 218
-3 270 l-8 95 -32 3 c-24 2 -34 -2 -43 -18z m-5 -330 c3 -5 8 -118 11 -250 l4
-240 -25 -10 c-39 -15 -53 -3 -66 58 -15 74 -7 416 11 437 14 17 56 20 65 5z"/>
<path d="M2899 2409 c-17 -32 8 -50 81 -56 l63 -6 -8 -361 c-4 -199 -7 -374
-8 -390 0 -17 8 -35 19 -43 24 -17 30 -17 54 7 18 18 20 34 21 208 1 103 4
275 8 382 l6 195 62 7 c73 8 83 12 83 38 0 34 -33 40 -204 40 -158 0 -166 -1
-177 -21z"/>
<path d="M3322 2383 c-30 -25 -37 -66 -17 -87 25 -24 80 -21 99 6 46 65 -23
131 -82 81z"/>
<path d="M3768 2188 c-10 -18 -13 -89 -13 -328 l0 -305 26 -3 c50 -6 53 9 59
291 6 239 7 260 25 273 30 22 45 17 62 -23 13 -32 15 -73 10 -274 -3 -141 -1
-242 4 -252 12 -20 52 -22 67 -4 18 22 6 541 -13 578 -23 44 -55 60 -117 58
-29 -1 -63 2 -75 6 -16 5 -24 1 -35 -17z"/>
<path d="M855 2190 c-123 -10 -214 -59 -279 -150 -62 -87 -66 -117 -61 -509 8
-515 10 -553 38 -615 36 -79 125 -169 193 -194 83 -32 195 -31 269 4 30 14 53
30 50 34 -6 10 57 6 74 -4 6 -4 11 -13 11 -21 0 -15 13 -20 77 -30 24 -4 50
-2 62 4 19 11 20 20 17 403 l-2 393 -182 3 c-212 3 -201 9 -209 -117 -8 -105
1 -119 75 -123 l57 -3 2 -89 c3 -111 -8 -157 -48 -190 -17 -14 -24 -26 -17
-26 16 0 78 57 78 72 0 5 4 6 10 3 9 -5 113 54 169 97 13 10 28 18 32 18 16 0
9 -31 -8 -37 -15 -6 -122 -74 -318 -202 -22 -14 -44 -28 -50 -31 -12 -6 -83
-51 -144 -92 -34 -22 -46 -26 -57 -17 -8 6 -14 15 -14 19 0 4 52 38 115 76 63
38 115 72 115 76 0 14 -38 8 -43 -7 -4 -8 -32 -28 -64 -44 -32 -16 -73 -41
-92 -55 -38 -28 -61 -33 -61 -13 0 13 72 63 154 107 l52 27 -26 15 c-50 29
-55 73 -55 500 0 373 1 388 21 414 11 15 27 30 35 34 7 4 24 12 36 18 28 15
80 16 88 2 3 -5 15 -10 25 -10 18 0 44 -31 46 -55 0 -5 6 -23 12 -38 7 -16 12
-52 12 -82 l0 -54 53 -6 c28 -3 83 -5 122 -3 l70 3 9 55 c19 122 -34 280 -122
362 -72 68 -172 91 -327 78z m35 -17 c0 -5 -53 -39 -118 -78 -64 -38 -138 -85
-165 -103 -38 -26 -48 -30 -45 -16 2 14 161 123 218 150 8 4 17 10 20 13 23
28 90 53 90 34z m80 -1 c0 -4 -13 -13 -28 -20 -16 -7 -53 -30 -83 -53 -30 -22
-107 -72 -171 -110 -65 -39 -120 -75 -124 -80 -8 -13 -24 -11 -24 4 0 13 129
101 280 191 52 31 102 61 110 66 19 11 40 13 40 2z m60 -12 c0 -6 -20 -23 -46
-38 -25 -15 -100 -63 -167 -107 -148 -97 -268 -167 -275 -160 -11 10 25 38
132 102 61 37 134 83 161 103 74 53 168 110 182 110 7 0 13 -5 13 -10z m-250
-15 c-7 -8 -18 -15 -25 -15 -8 0 -15 -4 -17 -8 -5 -12 -128 -85 -134 -79 -7 7
72 72 116 96 44 25 78 28 60 6z m310 2 c0 -7 -17 -23 -37 -34 -21 -12 -102
-63 -180 -115 -303 -198 -333 -217 -340 -205 -7 11 49 63 84 77 11 5 82 48
157 97 207 134 300 192 309 193 4 0 7 -6 7 -13z m50 -21 c0 -11 -238 -162
-264 -167 -42 -10 -21 7 119 95 106 67 145 86 145 72z m40 -37 c0 -5 -19 -18
-42 -30 -24 -12 -69 -39 -100 -60 -63 -43 -109 -55 -73 -20 11 11 58 44 104
74 76 50 111 61 111 36z m25 -39 c0 -7 -25 -26 -55 -42 -30 -17 -69 -41 -87
-54 -36 -27 -53 -30 -53 -10 0 17 40 48 119 92 58 33 76 36 76 14z m35 -39 c0
-8 -181 -121 -194 -121 -19 0 0 31 32 52 100 68 162 94 162 69z m13 -46 c2 -8
-117 -95 -131 -95 -4 0 -18 -9 -32 -20 -52 -41 7 -19 80 30 81 54 100 60 100
33 0 -12 -20 -28 -54 -46 -30 -16 -72 -44 -94 -63 -22 -19 -43 -34 -45 -34 -3
0 -9 20 -13 45 -8 56 -2 64 95 121 74 43 91 48 94 29z m-480 -75 c-7 -25 -15
-32 -130 -101 -97 -60 -113 -67 -113 -49 0 10 87 78 135 104 17 10 48 28 70
41 22 14 41 25 42 25 0 0 -1 -9 -4 -20z m497 -40 c-99 -75 -185 -130 -199
-128 -36 7 154 148 199 147 l25 0 -25 -19z m-517 -50 c-3 -11 -11 -20 -17 -20
-7 0 -53 -24 -104 -54 -94 -56 -132 -61 -65 -9 54 42 175 113 184 107 4 -2 5
-13 2 -24z m532 0 c-12 -20 -127 -90 -147 -90 -10 0 -18 3 -18 8 0 14 155 111
164 102 4 -4 5 -14 1 -20z m-533 -52 c-29 -29 -207 -126 -211 -116 -2 7 8 21
23 33 46 34 179 104 189 98 5 -3 4 -10 -1 -15z m536 -15 c-3 -24 -8 -29 -37
-31 -49 -5 -58 11 -19 36 45 30 60 28 56 -5z m-534 -46 c-3 -9 -13 -17 -21
-17 -8 0 -53 -23 -100 -51 -46 -28 -87 -48 -91 -45 -9 10 16 30 113 89 87 53
113 59 99 24z m-4 -47 c0 -11 -8 -24 -17 -27 -10 -4 -55 -28 -100 -55 -45 -26
-84 -48 -87 -48 -3 0 -6 8 -6 18 1 11 34 38 93 74 102 63 117 67 117 38z m0
-53 c0 -12 -182 -127 -201 -127 -5 0 -9 5 -9 10 0 12 149 110 168 110 6 0 12
5 12 10 0 6 7 10 15 10 8 0 15 -6 15 -13z m-6 -67 c-22 -21 -197 -120 -203
-115 -8 9 52 59 93 79 17 9 49 26 71 40 22 14 42 20 44 14 2 -5 -1 -14 -5 -18z
m4 -47 c-3 -19 -196 -139 -206 -129 -14 14 18 43 103 94 97 57 108 61 103 35z
m219 0 c-9 -9 -19 -14 -23 -11 -10 10 6 28 24 28 15 0 15 -1 -1 -17z m78 8
c-9 -15 -105 -72 -105 -62 0 15 73 70 93 71 10 0 16 -4 12 -9z m60 -16 c-60
-49 -165 -118 -171 -112 -4 3 -4 13 -1 21 8 20 157 116 182 116 18 -1 17 -4
-10 -25z m109 12 c-2 -7 -30 -28 -62 -47 -31 -18 -90 -58 -130 -88 -55 -40
-77 -51 -85 -43 -15 15 4 33 133 120 97 66 157 90 144 58z m66 3 c0 -6 -10
-15 -22 -20 -13 -5 -70 -45 -128 -89 -93 -72 -140 -97 -140 -73 0 4 19 20 43
35 23 15 83 56 132 92 88 62 115 75 115 55z m10 -43 c0 -7 -37 -40 -82 -74
-46 -34 -93 -71 -106 -83 -23 -22 -42 -19 -42 5 0 15 197 164 218 165 6 0 12
-6 12 -13z m-540 -21 c0 -7 -28 -28 -62 -46 -35 -18 -77 -43 -95 -56 -35 -27
-53 -30 -53 -11 1 13 176 125 198 126 6 1 12 -5 12 -13z m536 -52 c-7 -22
-204 -150 -214 -139 -7 7 37 45 142 126 59 46 84 50 72 13z m-536 2 c0 -15
-198 -141 -207 -132 -16 16 53 68 176 133 32 16 31 16 31 -1z m5 -55 c-3 -6
-38 -31 -78 -57 -39 -25 -85 -55 -100 -66 -30 -21 -43 -19 -34 6 10 24 175
126 205 126 7 0 11 -4 7 -9z m535 0 c0 -9 -52 -51 -63 -51 -9 0 -125 -79 -132
-90 -8 -13 -25 -13 -25 1 0 14 31 39 124 102 68 46 96 57 96 38z m-556 -68
c-10 -8 -53 -38 -96 -68 -79 -57 -98 -65 -98 -41 0 7 43 39 95 70 51 31 97 62
101 68 6 9 9 8 12 -2 3 -8 -4 -20 -14 -27z m546 8 c0 -13 -31 -39 -97 -82
-118 -77 -113 -75 -113 -52 0 17 22 36 138 116 62 42 72 45 72 18z m-530 -44
c0 -14 -178 -137 -199 -137 -25 0 -5 19 84 84 91 66 115 77 115 53z m530 -16
c0 -14 -197 -144 -212 -139 -16 6 0 19 107 93 77 53 105 65 105 46z m-530 -40
c0 -11 -8 -22 -18 -25 -10 -4 -52 -29 -93 -56 -75 -51 -89 -57 -89 -41 0 7
187 141 197 141 2 0 3 -9 3 -19z m10 -53 c0 -7 -42 -38 -93 -68 -112 -67 -110
-66 -105 -46 3 16 164 126 186 126 6 0 12 -6 12 -12z m525 -18 c0 -8 -32 -35
-71 -60 -39 -25 -126 -81 -192 -125 -239 -158 -252 -166 -274 -154 -18 10 -15
14 39 53 32 24 77 54 100 67 69 39 223 135 303 188 75 50 95 56 95 31z m-517
-32 c-3 -7 -24 -24 -49 -37 -24 -13 -66 -36 -92 -52 -53 -32 -77 -38 -57 -14
19 23 173 115 193 115 5 0 7 -6 5 -12z m522 -31 c0 -18 -12 -30 -52 -52 -57
-30 -194 -115 -325 -203 -53 -35 -88 -52 -99 -48 -24 9 -6 26 74 74 37 22 139
88 226 146 88 58 163 106 168 106 4 0 8 -11 8 -23z m-511 -20 c-2 -2 -38 -25
-79 -52 -41 -27 -78 -53 -81 -58 -8 -12 -39 -2 -39 13 0 20 180 121 194 109 5
-5 8 -10 5 -12z m26 -26 c7 -12 -3 -21 -99 -83 -60 -39 -80 -48 -87 -37 -11
19 2 32 89 84 81 48 88 50 97 36z m485 -9 c0 -14 -40 -47 -120 -99 -41 -26
-104 -69 -140 -94 -65 -46 -112 -65 -131 -54 -12 8 14 29 101 82 36 22 112 70
170 107 105 66 120 73 120 58z m-2 -69 c-4 -24 -115 -96 -136 -88 -14 5 -14 7
0 21 24 24 112 82 126 83 8 1 12 -7 10 -16z m2 -56 c0 -8 -21 -28 -46 -46 -28
-21 -43 -39 -40 -47 3 -9 -1 -14 -13 -14 -20 0 -35 25 -25 42 7 11 105 77 117
77 4 1 7 -5 7 -12z m-183 -54 c-9 -9 -20 -14 -24 -10 -3 4 2 14 13 21 25 19
33 10 11 -11z m174 -7 c-6 -8 -22 -16 -34 -20 -21 -5 -21 -4 3 14 29 23 48 26
31 6z m9 -36 c0 -5 -9 -10 -21 -10 -11 0 -17 5 -14 10 3 6 13 10 21 10 8 0 14
-4 14 -10z"/>
<path d="M4504 2190 c-42 -17 -64 -58 -64 -121 0 -54 2 -59 25 -65 34 -8 55
11 55 50 0 35 24 76 45 76 28 0 45 -42 45 -112 l0 -68 -32 0 c-87 0 -138 -76
-138 -205 0 -89 21 -151 61 -179 27 -19 90 -21 107 -4 9 9 15 9 24 0 21 -21
72 -14 97 12 29 31 24 61 -9 61 l-25 0 0 235 c0 254 -4 277 -57 314 -24 17
-99 20 -134 6z m106 -440 c0 -119 0 -120 -23 -120 -45 0 -62 33 -62 124 0 93
11 116 56 116 l29 0 0 -120z"/>
<path d="M1736 2182 c-17 -27 -36 -148 -30 -188 10 -72 13 -73 162 -78 74 -3
136 -7 139 -9 2 -3 5 -193 5 -423 1 -457 0 -473 -56 -509 -43 -29 -161 -18
-182 16 -16 26 -33 157 -33 256 l-1 102 -35 7 c-19 3 -71 4 -116 2 -111 -5
-110 -3 -105 -192 7 -236 38 -320 142 -392 69 -47 171 -79 207 -64 l22 9 -22
0 c-13 1 -23 5 -23 11 0 5 34 36 75 69 76 60 349 251 359 251 3 0 6 -9 6 -19
0 -12 -17 -30 -45 -48 -25 -15 -71 -48 -103 -72 -31 -24 -82 -60 -112 -81 -67
-46 -132 -108 -125 -120 3 -5 19 -7 35 -4 17 2 44 6 61 8 93 14 147 37 216 94
68 55 82 86 92 204 7 81 16 660 13 813 -1 17 -1 98 -2 182 0 106 -4 154 -13
161 -17 13 -523 27 -531 14z m28 -27 c-4 -8 -10 -12 -15 -9 -11 6 -2 24 11 24
5 0 7 -7 4 -15z m70 8 c3 -4 -17 -28 -46 -54 -39 -35 -54 -44 -56 -32 -2 8 13
33 34 54 37 38 54 46 68 32z m69 -12 c-4 -4 -45 -42 -90 -86 -63 -59 -83 -74
-83 -59 0 21 116 144 147 155 20 7 39 0 26 -10z m57 5 c0 -10 -202 -201 -216
-204 -32 -7 -23 2 128 146 57 53 88 74 88 58z m68 -5 c-5 -15 -227 -221 -238
-221 -28 0 -1 37 96 129 62 60 114 101 126 101 11 0 18 -4 16 -9z m-38 -106
c-101 -101 -150 -136 -150 -106 0 19 224 221 244 221 15 0 -9 -30 -94 -115z
m180 107 c0 -4 -10 -16 -22 -26 -12 -10 -65 -59 -119 -107 -91 -83 -119 -102
-119 -80 0 16 225 221 243 221 9 0 17 -3 17 -8z m70 -1 c0 -6 -8 -16 -18 -23
-11 -7 -59 -51 -108 -96 -49 -46 -99 -89 -112 -95 -39 -18 -38 3 3 40 22 20
76 69 119 110 71 65 116 90 116 64z m20 -40 c0 -11 -23 -36 -57 -62 -32 -24
-75 -59 -96 -79 -46 -42 -66 -54 -75 -45 -3 3 23 32 58 63 35 31 84 76 110 99
51 48 60 51 60 24z m0 -71 c0 -13 -34 -45 -107 -100 -58 -44 -110 -80 -115
-80 -32 0 35 69 151 157 64 48 71 51 71 23z m0 -65 c0 -8 -10 -21 -22 -30 -29
-19 -141 -104 -173 -129 -31 -25 -45 -13 -19 15 25 29 194 159 205 159 5 0 9
-7 9 -15z m0 -65 c0 -14 -15 -30 -47 -48 -25 -15 -75 -48 -110 -74 -70 -53
-73 -54 -73 -35 0 13 204 177 221 177 5 0 9 -9 9 -20z m0 -90 l0 -50 -57 -37
c-32 -20 -81 -51 -109 -70 -57 -37 -64 -39 -64 -19 0 7 49 47 110 87 60 40
108 75 105 77 -5 6 -85 -40 -148 -84 -48 -34 -67 -41 -67 -25 0 14 202 168
223 170 4 1 7 -22 7 -49z m0 -94 c0 -8 -23 -28 -50 -45 -28 -17 -76 -51 -107
-76 -56 -43 -73 -48 -73 -19 0 13 203 153 223 154 4 0 7 -6 7 -14z m0 -84 l0
-49 -87 -53 c-49 -29 -98 -61 -109 -72 -16 -14 -24 -16 -29 -8 -4 7 -3 15 1
20 13 11 196 129 208 133 6 3 7 8 3 13 -4 4 -16 3 -25 -4 -40 -27 -180 -112
-187 -112 -3 0 -5 7 -3 15 3 14 204 164 221 165 4 0 7 -22 7 -48z m0 -86 c0
-12 -43 -43 -170 -122 -25 -15 -39 -29 -32 -32 7 -2 21 2 30 10 9 8 42 30 72
48 30 18 65 39 78 48 20 13 22 13 22 -7 0 -16 -10 -26 -36 -37 -20 -9 -67 -35
-104 -60 -37 -24 -72 -44 -79 -44 -6 0 -11 15 -11 33 0 30 8 37 108 104 59 40
110 72 115 73 4 0 7 -6 7 -14z m0 -111 c0 -8 -5 -15 -11 -15 -12 0 -156 -87
-177 -107 -15 -15 -42 -17 -42 -4 0 4 28 25 63 47 34 21 80 51 102 66 45 31
65 35 65 13z m0 -40 c0 -8 -26 -31 -57 -51 -32 -20 -82 -52 -111 -72 -28 -19
-54 -33 -57 -30 -11 10 6 34 43 58 40 27 175 110 180 110 1 0 2 -7 2 -15z m0
-58 c0 -19 -12 -29 -53 -50 -29 -14 -77 -42 -106 -61 -53 -36 -71 -43 -71 -28
0 13 28 35 100 77 36 22 67 43 68 47 2 4 9 8 17 8 7 0 18 7 25 15 17 20 20 19
20 -8z m-700 -13 c0 -8 -43 -43 -52 -44 -12 0 -9 25 4 38 12 12 48 17 48 6z
m90 -1 c-1 -9 -118 -86 -137 -91 -21 -5 -15 17 10 37 60 52 74 60 100 61 15 0
27 -3 27 -7z m65 -2 c5 -9 -18 -27 -140 -108 -50 -33 -75 -41 -75 -24 0 10
188 140 202 141 4 0 9 -4 13 -9z m545 -39 c0 -14 -30 -36 -95 -71 -33 -19 -75
-44 -93 -58 -34 -26 -54 -24 -37 3 10 15 203 134 218 134 4 0 7 -4 7 -8z
m-552 -25 c-14 -12 -45 -33 -69 -47 -23 -14 -57 -38 -76 -53 -31 -28 -60 -34
-45 -11 12 19 186 134 202 134 10 -1 6 -8 -12 -23z m552 -34 c0 -13 -32 -34
-105 -70 -109 -55 -137 -65 -115 -38 7 8 18 15 24 16 6 0 49 25 96 54 47 29
88 54 93 54 4 1 7 -7 7 -16z m-540 -7 c-8 -8 -59 -44 -113 -80 -67 -45 -97
-61 -95 -49 4 22 176 143 203 143 17 0 17 -2 5 -14z m526 -52 c-11 -8 -26 -14
-33 -14 -7 0 -13 -4 -13 -10 0 -5 -4 -10 -10 -10 -5 0 -39 -18 -75 -40 -66
-40 -85 -47 -85 -31 0 10 222 129 230 123 3 -2 -4 -10 -14 -18z m-526 6 c0 -5
-15 -17 -32 -26 -18 -10 -58 -36 -88 -58 -30 -23 -59 -44 -64 -48 -6 -4 -7
-10 -4 -14 4 -3 24 7 45 24 46 36 134 92 145 92 4 0 8 -8 8 -17 0 -11 -18 -28
-43 -42 -23 -13 -68 -41 -99 -62 -65 -44 -84 -49 -68 -20 7 13 7 22 0 26 -21
13 -7 26 87 90 99 66 113 73 113 55z m538 -32 c-3 -7 -39 -34 -80 -59 -42 -25
-100 -63 -128 -83 -29 -21 -54 -35 -57 -32 -9 9 31 66 48 66 9 0 27 8 40 18
13 9 40 26 59 36 19 11 51 30 70 42 40 26 53 29 48 12z m2 -52 c0 -8 -66 -58
-147 -112 -81 -55 -191 -134 -245 -176 -64 -52 -105 -78 -122 -78 -14 0 -26 4
-26 9 0 18 499 368 528 370 6 1 12 -5 12 -13z m-530 -28 c-1 -12 -177 -138
-194 -138 -4 0 -6 10 -4 22 2 14 30 38 88 74 87 55 110 64 110 42z m10 -56 c0
-12 -29 -34 -85 -67 -46 -28 -85 -53 -85 -57 0 -13 4 -11 95 44 60 36 89 48
97 40 7 -7 3 -14 -13 -25 -13 -8 -57 -35 -97 -61 l-72 -46 -20 32 c-11 18 -16
35 -12 39 18 17 176 119 184 119 4 0 8 -8 8 -18z m500 -46 c0 -19 -20 -39 -87
-90 -49 -35 -115 -85 -148 -110 -54 -42 -105 -60 -105 -37 0 5 62 55 138 111
75 57 139 106 142 110 5 7 53 40 57 40 2 0 3 -11 3 -24z m-430 -26 c0 -5 -4
-10 -10 -10 -5 0 -48 -27 -95 -60 -47 -33 -90 -60 -95 -60 -28 0 -1 27 82 80
90 59 118 70 118 50z m140 4 c0 -9 -22 -28 -75 -64 -27 -18 -76 -53 -107 -77
-53 -40 -88 -54 -88 -35 0 8 54 52 64 52 6 0 98 62 106 71 3 3 23 18 45 32 39
27 55 33 55 21z m-70 -8 c0 -7 -109 -86 -118 -86 -5 0 -30 -16 -55 -35 -49
-37 -67 -43 -67 -21 0 12 63 58 170 124 31 19 70 29 70 18z m326 -68 c-9 -13
-40 -36 -71 -53 -30 -16 -55 -35 -55 -42 0 -7 -3 -13 -7 -13 -5 0 -19 -3 -33
-7 -24 -6 -24 -5 5 18 17 13 39 32 50 42 27 25 106 77 117 77 5 0 2 -10 -6
-22z"/>
<path d="M3503 2180 c-12 -5 -30 -21 -40 -37 -16 -23 -18 -55 -21 -233 -5
-247 4 -313 48 -352 35 -32 89 -37 145 -14 38 16 52 37 61 93 7 45 -10 67 -48
61 -16 -2 -25 -13 -33 -41 -30 -107 -101 -47 -93 78 l3 49 40 3 c87 5 125 65
125 198 0 113 -16 151 -80 183 -47 23 -71 26 -107 12z m77 -88 c20 -16 24 -31
28 -100 5 -93 -10 -132 -52 -132 -24 0 -24 2 -28 108 -5 139 5 162 52 124z"/>
<path d="M3322 2163 c-5 -10 -12 -154 -16 -320 -6 -294 -5 -302 14 -308 10 -3
28 -2 38 4 25 13 30 56 38 361 6 224 5 247 -10 263 -22 22 -53 22 -64 0z"/>
<path d="M3120 1331 c-7 -13 -6 -45 2 -103 13 -96 -6 -605 -25 -645 -24 -52
-86 -42 -115 20 -24 51 -44 70 -65 61 -38 -14 -24 -96 24 -141 32 -29 72 -43
122 -43 50 0 77 17 108 66 20 33 23 55 30 213 4 97 8 259 8 361 1 153 -2 190
-15 208 -19 27 -60 29 -74 3z"/>
<path d="M3982 1278 c-7 -7 -12 -43 -12 -90 0 -76 -1 -78 -24 -78 -40 0 -76
-18 -76 -38 0 -29 21 -42 66 -42 l42 0 -5 -242 c-6 -265 -1 -299 49 -332 39
-25 113 -32 143 -12 44 29 26 72 -29 68 -20 -2 -45 2 -56 8 -20 11 -20 19 -18
258 l3 247 55 3 c73 4 95 23 70 62 -7 11 -24 14 -68 12 l-59 -3 -6 58 c-3 32
-4 69 0 81 10 41 -44 71 -75 40z"/>
<path d="M3595 1106 c-14 -20 -15 -40 -10 -113 3 -48 2 -178 -3 -288 -6 -124
-6 -207 -1 -217 12 -22 52 -23 70 -2 10 12 14 83 19 276 5 242 7 261 25 274
30 22 49 13 64 -31 10 -31 12 -89 7 -268 -4 -151 -3 -235 4 -247 12 -23 52
-27 68 -7 18 21 6 541 -13 578 -23 44 -56 60 -117 58 -29 -1 -63 2 -75 6 -16
5 -25 1 -38 -19z"/>
<path d="M4268 1104 c-37 -19 -58 -63 -58 -117 0 -51 18 -72 54 -63 19 5 24
14 29 53 5 44 25 73 52 73 20 0 35 -40 41 -110 l7 -70 -40 0 c-95 0 -148 -84
-141 -220 7 -114 50 -180 117 -180 20 0 42 4 50 9 7 5 25 4 42 -2 37 -14 80 0
95 32 17 33 7 54 -22 47 -16 -4 -24 -2 -25 6 -1 7 -2 117 -3 243 -1 249 -5
268 -56 298 -35 21 -106 21 -142 1z m112 -434 l0 -120 -25 0 c-38 0 -57 39
-59 118 -1 85 15 122 56 122 l28 0 0 -120z"/>
<path d="M3333 1100 c-12 -5 -30 -21 -40 -36 -16 -24 -18 -56 -21 -234 -5
-266 0 -304 43 -347 27 -27 41 -33 74 -33 51 0 106 22 119 47 19 34 25 92 12
108 -29 35 -80 7 -80 -44 0 -27 -34 -45 -59 -31 -22 11 -35 70 -29 135 3 38 4
39 41 42 45 2 80 22 104 60 15 22 18 49 18 138 0 129 -11 155 -78 186 -46 20
-70 22 -104 9z m67 -80 c25 -14 40 -63 40 -134 0 -70 -18 -106 -54 -106 -23 0
-24 3 -28 113 -4 98 1 137 19 137 2 0 13 -4 23 -10z"/>
<path d="M930 950 c-13 -8 -13 -10 2 -10 9 0 20 5 23 10 8 13 -5 13 -25 0z"/>
</g>
</svg>
